inDegrees=yes
name=ik_lifting_orientations
DataType=double
version=3
OpenSimVersion=4.5-2024-01-10-34fd6af
endheader
time	pelvis_tilt	pelvis_list	pelvis_rotation	pelvis_tx	pelvis_ty	pelvis_tz	hip_flexion_r	hip_adduction_r	hip_rotation_r	knee_angle_r	knee_angle_r_beta	ankle_angle_r	subtalar_angle_r	mtp_angle_r	hip_flexion_l	hip_adduction_l	hip_rotation_l	knee_angle_l	knee_angle_l_beta	ankle_angle_l	subtalar_angle_l	mtp_angle_l	lumbar_extension	lumbar_bending	lumbar_rotation	arm_flex_r	arm_add_r	arm_rot_r	elbow_flex_r	pro_sup_r	wrist_flex_r	wrist_dev_r	arm_flex_l	arm_add_l	arm_rot_l	elbow_flex_l	pro_sup_l	wrist_flex_l	wrist_dev_l
0.49	0.01211732497101567	14.89323834502631	-90.00177407076823	0	0.9399999998679526	0	44.99119266767939	-11.23573949863502	0	59.99627110316989	1.047132469669445	-5.555545734515388	0	0	44.99119266767939	-11.23573949863502	0	59.99627110316989	1.047132469669445	-5.555545734515388	0	0	59.75723252867342	-9.13195649070491	-3.342942443248951	-49.03173667459014	7.291297391838513	10.54375130237175	0.1100738259961048	2.385239229351622	0	0	0	-10.5231066339915	0	87.66199937179333	2.385239229351622	0	0
0.5	-0.01121462522001316	14.88122734315251	-89.98000228853482	0	0.9399999998679526	0	44.99119442787879	-11.23487450634443	0	59.99627170941973	1.047132480250501	-5.555038689794618	0	0	44.99119442787879	-11.23487450634443	0	59.99627170941973	1.047132480250501	-5.555038689794618	0	0	59.74172432502733	-9.142496183344727	-3.357981842016294	-49.45073921407892	7.305889430563169	9.953086459775845	0.07008955047874392	2.384907492540357	0	0	0	-10.52356509808263	0	87.66232450626089	2.384907492540357	0	0
0.51	-0.007547968462007302	14.88431493806455	-89.99762851717409	0	0.9399999998679526	0	44.99119768723016	-11.23327657879783	0	59.99627283342985	1.047132499868178	-5.554102620236141	0	0	44.99119768723016	-11.23327657879783	0	59.99627283342985	1.047132499868178	-5.554102620236141	0	0	61.50072974606511	-9.511050021704914	-3.324551444408623	-51.22943791786929	7.751041123106159	9.779835073691402	0.06635549249878191	2.38429287476633	0	0	0	-10.52441488475788	0	87.66292689174325	2.38429287476633	0	0
0.52	-0.02035467997363528	14.74259579876613	-89.98690862777823	0	0.9399999998679526	0	44.99120020893726	-11.23204955677688	0	59.9962737076446	1.047132515126104	-5.553385035881686	0	0	44.99120020893726	-11.23204955677688	0	59.9962737076446	1.047132515126104	-5.553385035881686	0	0	63.13679524594025	-9.895548908428353	-3.317260913918351	-53.06944465004022	7.821043615155232	10.19821666054711	0.06498014371020969	2.383816351308226	0	0	0	-10.52507489450227	0	87.66339393144162	2.383816351308226	0	0
0.53	-0.001946455028389411	13.53766096668578	-89.99766049359731	0	0.9399999998679526	0	44.99158681184568	-11.03890310310864	0	59.99641520496216	1.047134984720178	-5.441504825043073	0	0	44.99158681184568	-11.03890310310864	0	59.99641520496216	1.047134984720178	-5.441504825043073	0	0	60.67033822540094	-9.625629228364584	-3.304704621268952	-51.63839658548732	7.894939643961695	9.330178036967833	0.06095906998170249	2.311474327443864	0	0	0	-10.62473043760603	0	87.73429616203951	2.311474327443864	0	0
0.54	-0.01551720677967567	13.54442419595953	-89.99169283391274	0	0.9399999998679526	0	44.99158941138517	-11.03777906863025	0	59.9964161071355	1.047135000466074	-5.440881892225073	0	0	44.99158941138517	-11.03777906863025	0	59.9964161071355	1.047135000466074	-5.440881892225073	0	0	62.51740351847022	-10.02442967674899	-3.296523979981174	-53.06071039283106	8.434589410573448	9.770380049773296	0.07621359696239227	2.310977367638224	0	0	0	-10.62542299660881	0	87.73478323235379	2.310977367638224	0	0
0.55	0.002163955035833188	13.53546970895042	-90.0001223096518	0	0.9399999998679526	0	44.99159207744066	-11.03662735319793	0	59.99641703271369	1.04713501662046	-5.440243820846222	0	0	44.99159207744066	-11.03662735319793	0	59.99641703271369	1.04713501662046	-5.440243820846222	0	0	62.517523272166	-10.03273535353121	-3.260547224953604	-52.40360415948801	8.552857499998133	9.333729886723017	0.04734353105653065	2.310467593844421	0	0	0	-10.62613352052377	0	87.7352828616731	2.310467593844421	0	0
0.5600000000000001	-0.01963366322640909	13.53787054782511	-89.99519834041699	0	0.9399999998679526	0	44.99159439863882	-11.03562563965683	0	59.99641783865626	1.047135030686812	-5.439689086518837	0	0	44.99159439863882	-11.03562563965683	0	59.99641783865626	1.047135030686812	-5.439689086518837	0	0	64.39614082196759	-10.42859811138511	-3.241539489005732	-53.76887522085631	7.973240858609179	9.973355387515372	0.0484050756100043	2.310023707366598	0	0	0	-10.62675225063512	0	87.73571791483853	2.310023707366598	0	0
0.57	-0.0007797958190359067	13.54293482131583	-90.00230807178953	0	0.9399999998679526	0	44.99183567287101	-10.9284087689652	0	59.9965033678543	1.047136523452924	-5.380921865089666	0	0	44.99183567287101	-10.9284087689652	0	59.9965033678543	1.047136523452924	-5.380921865089666	0	0	64.4145382739262	-10.43571373518478	-3.207493909101585	-52.56318504320858	8.274235545935005	9.552598764234229	0.04069267033638185	2.264636902142067	0	0	0	-10.68919526081264	0	87.78020142314102	2.264636902142067	0	0
0.58	-0.006842922127406941	13.54319071066943	-89.99367246486193	0	0.9399999998679526	0	44.99183757897666	-10.9276499245445	0	59.99650403360948	1.047136535072544	-5.380515774833732	0	0	44.99183757897666	-10.9276499245445	0	59.99650403360948	1.047136535072544	-5.380515774833732	0	0	64.41170966002908	-10.43731230661988	-3.216561489999248	-52.64841380248077	8.821611995992175	9.552375431143341	0.03888652979060021	2.264268982823405	0	0	0	-10.68971092193814	0	87.78056202142875	2.264268982823405	0	0
0.59	0.00014593932129179	13.53769565287091	-90.00061212963899	0	0.9399999998679526	0	44.99184025219668	-10.92658598933191	0	59.99650496701967	1.047136551363625	-5.379946546764422	0	0	44.99184025219668	-10.92658598933191	0	59.99650496701967	1.047136551363625	-5.379946546764422	0	0	64.40944686037564	-10.44421240819478	-3.204651549711321	-51.954253826463	8.917616566174361	9.023401992434426	0.03220599230586152	2.263753019856579	0	0	0	-10.69043402816437	0	87.78106771752114	2.263753019856579	0	0
0.6	-0.0005683555977562476	13.53942224718647	-90.00031196602407	0	0.9399999998679526	0	44.99184306008391	-10.92546877560967	0	59.9965059470746	1.047136568468811	-5.379348964975715	0	0	44.99184306008391	-10.92546877560967	0	59.9965059470746	1.047136568468811	-5.379348964975715	0	0	64.41127488458666	-10.44169492818863	-3.205186813495782	-51.35146269329866	8.405957309136516	9.137871313292843	0.03575720754486739	2.263211104164895	0	0	0	-10.69119343939916	0	87.78159884991571	2.263211104164895	0	0
0.61	-0.029861305596474	13.5441508551211	-89.99689341316606	0	0.9399999998679526	0	44.99184480410225	-10.92477640853345	0	59.99650655646404	1.047136579104663	-5.378978869061948	0	0	44.99184480410225	-10.92477640853345	0	59.99650655646404	1.047136579104663	-5.378978869061948	0	0	65.64299234998505	-10.69133726207813	-3.215773861947476	-52.05025340488422	8.443238200966446	9.477632832156567	0.03068016413518267	2.262874346761496	0	0	0	-10.69166553363742	0	87.78192890638066	2.262874346761496	0	0
0.62	-0.00388463512631417	13.53733570168198	-89.99680889686429	0	0.9399999998679526	0	44.99184715589597	-10.92384199311354	0	59.99650737751821	1.047136593434761	-5.378479346421855	0	0	44.99184715589597	-10.92384199311354	0	59.99650737751821	1.047136593434761	-5.378479346421855	0	0	65.65195183974205	-10.71872811800197	-3.169013070046095	-51.82187733150251	8.359324547906008	8.320102291789267	0.03062336181086	2.262420364128639	0	0	0	-10.69230180618823	0	87.78237385546433	2.262420364128639	0	0
0.63	-0.0001624743138533887	13.52565242283082	-89.99761347154332	0	0.9399999998679526	0	44.99184773305677	-10.9236135593894	0	59.99650757943952	1.047136596958953	-5.378357357672505	0	0	44.99184773305677	-10.9236135593894	0	59.99650757943952	1.047136596958953	-5.378357357672505	0	0	65.65805531855399	-10.71326932190859	-3.167987265132221	-51.85246851538899	8.346945075229007	8.32293408071679	0.03073495781297849	2.262308851169166	0	0	0	-10.692458204971	0	87.7824831495013	2.262308851169166	0	0
0.64	0.003249494088866419	13.68273215963347	-90.00026822345933	0	0.9399999998679526	0	44.99184932402086	-10.92298338873741	0	59.99650813591075	1.047136606671208	-5.378020746196102	0	0	44.99184932402086	-10.92298338873741	0	59.99650813591075	1.047136606671208	-5.378020746196102	0	0	65.80739599190291	-10.73170157090224	-3.151366483677901	-51.18552286400897	7.908748671921451	8.385138609578357	0.02771419593348752	2.262001494007909	0	0	0	-10.6928892541461	0	87.78278439076344	2.262001494007909	0	0
0.65	0.0257690112504057	13.67595416178223	-89.99939117695787	0	0.9399999998679526	0	44.99185063832676	-10.92246268718833	0	59.99650859540692	1.047136614690929	-5.377742622425655	0	0	44.99185063832676	-10.92246268718833	0	59.99650859540692	1.047136614690929	-5.377742622425655	0	0	65.80621091695002	-10.74411378222753	-3.129056024214111	-51.10397564225099	7.35992949740003	8.397363835449358	0.02856358508406634	2.261747619232673	0	0	0	-10.69324525221037	0	87.78303321384676	2.261747619232673	0	0
0.66	-0.007483341965097313	13.66980315716713	-89.99597270470852	0	0.9399999998679526	0	44.99185352239966	-10.92131861289441	0	59.99650960215988	1.047136632262083	-5.377131485435053	0	0	44.99185352239966	-10.92131861289441	0	59.99650960215988	1.047136632262083	-5.377131485435053	0	0	65.78602197086373	-10.71249317367455	-3.172603608650571	-51.15690918813162	6.648801572485509	8.986354920549969	0.0306870542138758	2.261190819846481	0	0	0	-10.6940256591329	0	87.78357893380253	2.261190819846481	0	0
0.67	-0.0116011461015721	14.88952721498447	-89.9936973314594	0	0.9399999998679526	0	44.99185647784913	-10.92015016523198	0	59.99651063595886	1.047136650305279	-5.376507862000396	0	0	44.99185647784913	-10.92015016523198	0	59.99651063595886	1.047136650305279	-5.376507862000396	0	0	67.00014857436372	-10.71270600569756	-3.178290348650955	-51.28054907350859	6.222212690930613	10.14166386376283	0.03206012435597801	2.260619742816584	0	0	0	-10.69482664943111	0	87.78413864736325	2.260619742816584	0	0
0.68	-8.830591767093053e-05	14.88760764094904	-90.00062310393916	0	0.9399999998679526	0	44.99185936246602	-10.91900785793906	0	59.99651164302104	1.04713666788183	-5.375898124261075	0	0	44.99185936246602	-10.91900785793906	0	59.99651164302104	1.04713666788183	-5.375898124261075	0	0	67.0030841297029	-10.71073752305838	-3.163882512452342	-51.2200145654276	5.117203049930147	10.74368064138173	0.03556239256342934	2.260062725440902	0	0	0	-10.69560745525842	0	87.78468458098904	2.260062725440902	0	0
